<?xml version="1.0" encoding="UTF-8"?>
<svg width="36px" height="41px" viewBox="0 0 36 41" version="1.1" xmlns="http://www.w3.org/2000/svg" xmlns:xlink="http://www.w3.org/1999/xlink">
    <!-- Generator: Sketch 47 (45396) - http://www.bohemiancoding.com/sketch -->
    <title>platform</title>
    <desc>Created with Sketch.</desc>
    <defs></defs>
    <g id="Page-1" stroke="none" stroke-width="1" fill="none" fill-rule="evenodd" opacity="0.300000012">
        <g id="Coinlist-Option2-Copy-5" transform="translate(-1564.000000, -248.000000)" stroke="#25273E" stroke-width="0.5" fill="#FFFFFF">
            <path d="M1598.58691,258.694331 L1582.33323,249.313367 C1582.13577,249.197902 1581.88809,249.197902 1581.69064,249.313367 L1565.43696,258.694331 C1565.23949,258.809796 1565.11566,259.020647 1565.11566,259.251585 L1565.11566,278.013942 C1565.11566,278.244872 1565.23949,278.455702 1565.43696,278.571196 L1581.69064,287.952161 C1581.78937,288.007386 1581.89982,288.037506 1582.01194,288.037506 C1582.12405,288.037506 1582.2345,288.007384 1582.33323,287.952161 L1598.58691,278.571196 C1598.78438,278.455732 1598.90821,278.24488 1598.90821,278.013942 L1598.90821,259.251585 C1598.90821,259.01898 1598.7827,258.809826 1598.58691,258.694331 Z M1582.01194,267.891514 L1575.18762,263.950635 L1582.01194,260.009756 L1588.83625,263.950635 L1582.01194,267.891514 Z M1574.54503,265.065101 L1581.36935,269.00598 L1581.36935,276.884568 L1574.54503,272.943689 L1574.54503,265.065101 Z M1582.65453,269.00598 L1589.47884,265.065101 L1589.47884,272.943689 L1582.65453,276.884568 L1582.65453,269.00598 Z M1582.33323,258.711252 C1582.13577,258.595787 1581.88809,258.595787 1581.69064,258.711252 L1575.62459,262.212042 L1582.01194,251.150918 L1588.39928,262.212042 L1582.33323,258.711252 Z M1573.58115,273.872532 L1579.6472,277.371651 L1566.8725,277.371651 L1573.25985,266.310527 L1573.25985,273.31562 C1573.25985,273.54655 1573.38034,273.75738 1573.58115,273.872875 L1573.58115,273.872532 Z M1590.44229,273.872532 C1590.63976,273.757067 1590.76359,273.546216 1590.76359,273.315278 L1590.76359,266.310185 L1597.15094,277.371309 L1584.37624,277.371309 L1590.44229,273.872532 Z M1583.76878,251.621337 L1596.98044,259.251885 L1590.37375,263.063903 L1583.76878,251.621337 Z M1573.64969,263.06416 L1567.043,259.252142 L1580.25466,251.621594 L1573.64969,263.06416 Z M1573.0071,264.178669 L1566.40041,275.619778 L1566.40041,260.365109 L1573.0071,264.178669 Z M1581.36935,278.657089 L1581.36935,286.286351 L1568.15768,278.657089 L1581.36935,278.657089 Z M1582.65453,278.657089 L1595.86619,278.657089 L1582.65453,286.287636 L1582.65453,278.657089 Z M1591.01677,264.178669 L1597.62346,260.366651 L1597.62346,275.621321 L1591.01677,264.178669 Z" id="platform"></path>
        </g>
    </g>
</svg>