<?xml version="1.0" encoding="UTF-8"?>
<svg width="45px" height="39px" viewBox="0 0 45 39" version="1.1" xmlns="http://www.w3.org/2000/svg" xmlns:xlink="http://www.w3.org/1999/xlink">
    <!-- Generator: Sketch 47 (45396) - http://www.bohemiancoding.com/sketch -->
    <title>portfolio</title>
    <desc>Created with Sketch.</desc>
    <defs></defs>
    <g id="Page-1" stroke="none" stroke-width="1" fill="none" fill-rule="evenodd" opacity="0.300000012">
        <g id="Coinlist-Option2-Copy-5" transform="translate(-1223.000000, -248.000000)" fill="#FFFFFF">
            <g id="portfolio" transform="translate(1222.862714, 247.390625)">
                <path d="M14.7514976,0.736338998 L14.7514976,7.29411413 L0.496497178,7.29411413 L0.496497178,38.7496721 L44.2602977,38.7496721 L44.2602977,7.34020529 L30.0052978,7.34020529 L30.0052978,0.736338998 L14.7514976,0.736338998 Z M15.7018309,1.68667233 L29.1010557,1.68667233 L29.1010557,7.29411413 L15.7018309,7.29411413 L15.7018309,1.68667233 Z M43.3691682,8.29053862 L43.3691682,37.7993388 L1.43561905,37.7993388 L1.43561905,8.29053862 L43.3691682,8.29053862 Z" id="Page-1"></path>
                <path d="M30.4997768,18.351317 L22.7134741,13.8573802 C22.6188794,13.8020669 22.5002286,13.8020669 22.4056421,13.8573802 L14.6193394,18.351317 C14.5247447,18.4066303 14.4654234,18.5076382 14.4654234,18.6182689 L14.4654234,27.6063477 C14.4654234,27.7169743 14.5247447,27.817972 14.6193394,27.8732996 L22.4056421,32.3672369 C22.4529395,32.3936919 22.5058476,32.4081211 22.5595581,32.4081211 C22.6132686,32.4081211 22.6661768,32.3936913 22.7134741,32.3672369 L30.4997768,27.8732996 C30.5943715,27.8179863 30.6536928,27.7169784 30.6536928,27.6063477 L30.6536928,18.6182689 C30.6536928,18.5068399 30.5935691,18.4066447 30.4997768,18.351317 Z M22.5595581,22.7572138 L19.2903822,20.8693417 L22.5595581,18.9814696 L25.828734,20.8693417 L22.5595581,22.7572138 Z M18.9825502,21.403225 L22.2517261,23.2910971 L22.2517261,27.0653227 L18.9825502,25.1774506 L18.9825502,21.403225 Z M22.8673901,23.2910971 L26.136566,21.403225 L26.136566,25.1774506 L22.8673901,27.0653227 L22.8673901,23.2910971 Z M22.7134741,18.3594232 C22.6188794,18.3041099 22.5002286,18.3041099 22.4056421,18.3594232 L19.499708,20.0364715 L22.5595581,14.7376566 L25.6194082,20.0364715 L22.7134741,18.3594232 Z M18.5208022,25.6224115 L21.4267363,27.2986594 L15.3070361,27.2986594 L18.3668862,21.9998445 L18.3668862,25.3556238 C18.3668862,25.4662504 18.4246047,25.567248 18.5208022,25.6225757 L18.5208022,25.6224115 Z M26.5981088,25.6224115 C26.6927035,25.5670982 26.7520248,25.4660903 26.7520248,25.3554596 L26.7520248,21.9996803 L29.8118749,27.2984952 L23.6921747,27.2984952 L26.5981088,25.6224115 Z M23.4011708,14.9630101 L29.7301968,18.6184126 L26.5652734,20.4445541 L23.4011708,14.9630101 Z M18.5536376,20.4446772 L15.3887142,18.6185357 L21.7177402,14.9631333 L18.5536376,20.4446772 Z M18.2458056,20.978581 L15.0808822,26.4594273 L15.0808822,19.1517007 L18.2458056,20.978581 Z M22.2517261,27.9144465 L22.2517261,31.5692329 L15.9227001,27.9144465 L22.2517261,27.9144465 Z M22.8673901,27.9144465 L29.1964161,27.9144465 L22.8673901,31.5698485 L22.8673901,27.9144465 Z M26.8733106,20.978581 L30.038234,19.1524395 L30.038234,26.460166 L26.8733106,20.978581 Z" id="Page-1-Copy"></path>
            </g>
        </g>
    </g>
</svg>